<?xml version="1.0" encoding="UTF-8"?><svg id="_レイヤー_1" xmlns="http://www.w3.org/2000/svg" viewBox="0 0 210.05 24.73"><defs><style>.cls-1{fill:#251d1b;}.cls-1,.cls-2,.cls-3,.cls-4,.cls-5,.cls-6,.cls-7,.cls-8{stroke-width:0px;}.cls-2{fill:#f8f8f8;}.cls-3{fill:#231a18;}.cls-4{fill:#241b19;}.cls-5{fill:#2a2220;}.cls-6{fill:#251d1c;}.cls-7{fill:#241a18;}.cls-9{fill:#000;font-family:WanpakuRuika-08, WanpakuRuika;font-size:24.73px;}.cls-8{fill:#fcfcfc;}</style></defs><text class="cls-9" transform="translate(26.58 21.77)"><tspan x="0" y="0">EngineMaker</tspan></text><path class="cls-7" d="M16.99,2.76c.28.17.49.37.72.59q.14.14.29.28c.1.1.2.2.31.3.1.1.21.2.32.31.22.22.44.43.66.65.28.28.56.55.85.82.27.26.54.53.81.79.1.1.2.2.31.3q.67.67.74,1.07c-.04.4-.17.78-.36,1.13-.04.08-.08.16-.13.24-.04.08-.09.16-.14.24q-.07.13-.14.26c-2.11,3.8-6.11,6.78-10.11,8.35-.34.09-.45.08-.77-.03q-.2-.15-.4-.35t-.23-.22c-.08-.08-.16-.16-.25-.24q-.13-.12-.25-.25c-.18-.17-.35-.35-.53-.52-.27-.27-.54-.53-.82-.79-.17-.17-.34-.34-.51-.51-.08-.08-.16-.16-.25-.24q-.55-.56-.56-1.09.19-.6.31-.86c.04-.09.08-.17.12-.26.04-.09.09-.18.13-.27.05-.09.09-.19.14-.29.91-1.85,2.14-3.58,3.54-5.09.22-.24.42-.48.63-.72.85-.97,4.1-4.13,5.58-3.6Z"/><path class="cls-4" d="M15.85,17.5c.14,2.02-.43,3.77-1.76,5.31-.76.81-1.65,1.58-2.72,1.93q-.26-.04-.46-.11c.08-.5.25-.93.45-1.39.53-1.31.76-2.48.82-3.89q.09-.04.18-.08c1.06-.48,2.09-.96,3.04-1.62q.22-.14.45-.14Z"/><path class="cls-3" d="M7.24,8.88c-.23.64-.59,1.2-.94,1.78-.28.47-.51.92-.7,1.44q-.13.27-.32.46c-.39.09-.75.09-1.15.09-.51,0-.98.13-1.47.28-.08.03-.17.05-.25.08-.57.18-1.09.41-1.61.72-.31.12-.5.07-.81-.02.07-1.31,1.21-2.41,2.12-3.24,1.52-1.29,3.18-1.65,5.12-1.58Z"/><path class="cls-4" d="M21.77,1.74c.08,0,.16,0,.25,0q.59,0,.85.13c.45,1.35.04,3.16-.34,4.48-.56-.47-1.09-.96-1.61-1.49-.07-.07-.15-.15-.22-.22-.23-.23-.46-.46-.69-.69-.16-.16-.31-.31-.47-.47-.38-.38-.76-.77-1.14-1.15.73-.73,2.41-.58,3.39-.59Z"/><path class="cls-1" d="M7.01,16.81c.14.11.27.21.4.32q.11.09.23.18t.18.53c-.18.21-.36.4-.56.6-.06.06-.12.12-.18.18-.2.2-.39.39-.59.59-.14.14-.27.27-.41.41-.29.29-.57.57-.86.85-.37.37-.74.73-1.1,1.1-.28.28-.56.56-.84.84-.14.13-.27.27-.41.4-.19.19-.38.38-.57.56-.06.06-.11.11-.17.17q-.39.38-.52.38c0-.17-.01-.35-.01-.52,0-.1,0-.19,0-.29.08-1.1.64-1.59,1.41-2.34.12-.11.23-.23.35-.34.3-.3.61-.6.91-.9.31-.31.62-.61.93-.92.61-.6,1.22-1.2,1.83-1.8Z"/><path class="cls-8" d="M17.12,6.47q.39.19.69.46c.09.08.18.16.27.24.29.52.27,1.02.19,1.6-.26.56-.59.88-1.15,1.15-.53.09-1.03.13-1.52-.14-.44-.36-.74-.71-.82-1.29,0-.76.1-1.13.61-1.71.49-.42,1.11-.38,1.72-.32Z"/><path class="cls-5" d="M5.4,15.31c.39.17.63.38.92.69-.17.58-.51.9-.93,1.31q-.1.1-.21.21c-.14.14-.29.29-.43.43-.22.22-.44.44-.66.66-.14.14-.28.28-.42.42-.07.07-.13.13-.2.2q-.47.46-.59.46-.03-1.72.28-2.21.22-.18.46-.34c.39-.27.7-.59,1.03-.93.06-.06.12-.12.19-.18q.32-.32.57-.7Z"/><path class="cls-6" d="M8.5,18.41c.39.17.64.37.92.69v.23q-.16.15-.38.34c-.63.54-1.21,1.13-1.79,1.72-.22.22-.43.44-.65.66-.09.1-.19.19-.29.29q-.22.21-.33.21-.05-1.61.39-2.15.18-.19.53-.49h.23l.11-.34q.17-.17.38-.34c.31-.26.6-.52.88-.81Z"/><path class="cls-2" d="M12.98,10.95c.34.2.62.44.8.8q.08.67-.12,1.01c-.34.41-.53.58-1.06.65-.57-.06-.72-.22-1.12-.62-.18-.36-.15-.63-.11-1.03.41-.69.82-.88,1.61-.8Z"/></svg>